<svg width="284" height="50" viewBox="0 0 284 50" fill="none" xmlns="http://www.w3.org/2000/svg">
<g clip-path="url(#clip0_2437_9477)">
<path d="M0.0385742 25.0037V0.364746H11.1107C16.3878 0.364746 19.554 3.53096 19.554 6.86988C19.5472 7.9297 19.248 8.96708 18.6894 9.86772C18.1307 10.7684 17.3342 11.4973 16.3878 11.9742C17.6174 12.3779 18.6966 13.1435 19.4841 14.1706C20.2716 15.1977 20.7306 16.4386 20.8013 17.731C20.8013 21.4153 17.2705 24.9461 11.8207 24.9461L0.0385742 25.0037ZM6.71641 5.64177V9.86339H10.4199C10.9797 9.86339 11.5166 9.64101 11.9125 9.24515C12.3083 8.8493 12.5307 8.31241 12.5307 7.75258C12.5307 7.19276 12.3083 6.65587 11.9125 6.26001C11.5166 5.86416 10.9797 5.64177 10.4199 5.64177H6.71641ZM11.3026 19.7266C11.6447 19.7568 11.9894 19.7155 12.3146 19.6053C12.6399 19.4951 12.9387 19.3185 13.192 19.0866C13.4453 18.8546 13.6476 18.5726 13.7859 18.2582C13.9243 17.9439 13.9958 17.6043 13.9958 17.2608C13.9958 16.9174 13.9243 16.5777 13.7859 16.2634C13.6476 15.9491 13.4453 15.667 13.192 15.4351C12.9387 15.2032 12.6399 15.0265 12.3146 14.9163C11.9894 14.8061 11.6447 14.7648 11.3026 14.795H6.71641V19.7266H11.3026Z" fill="#000F9F"/>
<path d="M30.7221 19.7266L28.9759 25.0037H21.7607L31.0867 0.364746H38.4745L47.7621 25.0037H40.5853L38.8199 19.7266H30.7221ZM34.771 7.21529L32.4107 14.4496H36.9778L34.771 7.21529Z" fill="#000F9F"/>
<path d="M64.8785 14.795V0.364746H71.5563V14.795C71.5679 16.2606 71.2817 17.7133 70.7151 19.065C70.1484 20.4167 69.3131 21.6392 68.2598 22.6584C67.2066 23.6776 65.9572 24.4723 64.5876 24.9942C63.218 25.516 61.7567 25.7543 60.2922 25.6945C58.8287 25.7544 57.3683 25.5161 55.9997 24.994C54.6311 24.4719 53.383 23.6769 52.3312 22.6575C51.2794 21.638 50.446 20.4153 49.8814 19.0636C49.3169 17.712 49.0332 16.2597 49.0474 14.795V0.364746H55.7252V14.795C55.6847 15.421 55.7729 16.0486 55.9846 16.639C56.1962 17.2295 56.5268 17.7702 56.9557 18.2279C57.3847 18.6855 57.9029 19.0503 58.4785 19.2997C59.054 19.5491 59.6746 19.6777 60.3018 19.6777C60.9291 19.6777 61.5497 19.5491 62.1252 19.2997C62.7008 19.0503 63.219 18.6855 63.648 18.2279C64.0769 17.7702 64.4075 17.2295 64.6191 16.639C64.8307 16.0486 64.919 15.421 64.8785 14.795Z" fill="#000F9F"/>
<path d="M103.718 0.364746H106.366V25.0037H103.718V0.364746Z" fill="#000F9F"/>
<path d="M133.211 0.364746V25.0037H130.928L115.788 5.10448V25.0037H113.159V0.364746H115.442L130.582 20.2447V0.364746H133.211Z" fill="#000F9F"/>
<path d="M147.718 0.364744C149.371 0.329086 151.015 0.619492 152.556 1.21937C154.097 1.81925 155.505 2.71685 156.699 3.86089C157.893 5.00494 158.85 6.373 159.515 7.88693C160.18 9.40086 160.54 11.031 160.575 12.6842C160.499 16.0214 159.103 19.1924 156.693 21.5018C154.283 23.8112 151.055 25.0706 147.718 25.0037H140.042V0.364744H147.718ZM142.614 2.82096V22.5283H147.718C149.049 22.587 150.377 22.3756 151.624 21.9069C152.871 21.4382 154.01 20.7219 154.972 19.8011C155.934 18.8803 156.7 17.7742 157.223 16.5494C157.747 15.3246 158.016 14.0065 158.016 12.6746C158.016 11.3427 157.747 10.0246 157.223 8.79985C156.7 7.57505 155.934 6.46891 154.972 5.54813C154.01 4.62735 152.871 3.911 151.624 3.44229C150.377 2.97359 149.049 2.76223 147.718 2.82096H142.614Z" fill="#000F9F"/>
<path d="M182.547 15.3131V0.364746H185.176V15.3131C185.235 16.6667 185.019 18.0183 184.542 19.2863C184.065 20.5544 183.336 21.7127 182.399 22.6915C181.462 23.6703 180.337 24.4492 179.091 24.9813C177.845 25.5135 176.504 25.7878 175.149 25.7878C173.794 25.7878 172.454 25.5135 171.208 24.9813C169.962 24.4492 168.836 23.6703 167.899 22.6915C166.962 21.7127 166.233 20.5544 165.756 19.2863C165.279 18.0183 165.064 16.6667 165.123 15.3131V0.364746H167.752V15.3131C167.701 16.3163 167.854 17.3193 168.203 18.2613C168.552 19.2033 169.088 20.0645 169.78 20.7926C170.472 21.5207 171.305 22.1004 172.228 22.4966C173.151 22.8927 174.145 23.097 175.149 23.097C176.154 23.097 177.148 22.8927 178.071 22.4966C178.994 22.1004 179.826 21.5207 180.518 20.7926C181.21 20.0645 181.747 19.2033 182.096 18.2613C182.444 17.3193 182.598 16.3163 182.547 15.3131Z" fill="#000F9F"/>
<path d="M190.645 6.69683C190.645 3.10845 193.677 -0.000195527 198.57 -0.000195527C199.929 -0.0108169 201.276 0.267687 202.52 0.816855C203.764 1.36602 204.877 2.17331 205.785 3.18521L204.019 4.93143C203.353 4.14004 202.517 3.50847 201.574 3.08334C200.631 2.65821 199.604 2.45038 198.57 2.47521C195.192 2.47521 193.293 4.39413 193.293 6.69683C193.293 13.0293 206.725 9.51764 206.725 18.3063C206.725 22.3552 203.732 25.3487 198.455 25.3487C196.885 25.4011 195.324 25.0947 193.891 24.4529C192.458 23.8111 191.19 22.8509 190.184 21.6452L191.796 19.8606C192.594 20.8485 193.611 21.6368 194.767 22.1631C195.923 22.6894 197.185 22.9391 198.455 22.8925C202.139 22.8925 204.077 20.9736 204.077 18.3063C204.019 11.9739 190.645 15.5047 190.645 6.69683Z" fill="#000F9F"/>
<path d="M227.296 0.364746V2.82096H219.621V25.0037H216.992V2.82096H209.316V0.364746H227.296Z" fill="#000F9F"/>
<path d="M242.264 0.364469C243.253 0.322362 244.241 0.483329 245.166 0.83745C246.091 1.19157 246.933 1.73134 247.641 2.4235C248.35 3.11567 248.909 3.94555 249.284 4.86202C249.66 5.77849 249.843 6.76212 249.824 7.75231C249.843 9.31873 249.356 10.8495 248.437 12.1179C247.518 13.3863 246.214 14.3249 244.72 14.7947L250.477 25.0034H247.483L242.091 15.1018H235.048V24.965H232.4V0.364469H242.264ZM235.048 2.82069V12.6839H242.264C242.922 12.7297 243.583 12.6334 244.201 12.4015C244.819 12.1696 245.38 11.8075 245.846 11.3398C246.312 10.8721 246.672 10.3097 246.901 9.69071C247.131 9.07175 247.224 8.41068 247.176 7.75231C247.224 7.09394 247.131 6.43287 246.901 5.8139C246.672 5.19494 246.312 4.63254 245.846 4.16484C245.38 3.69714 244.819 3.33506 244.201 3.10315C243.583 2.87123 242.922 2.7749 242.264 2.82069H235.048Z" fill="#000F9F"/>
<path d="M256.521 0.364746H259.169V25.0037H256.521V0.364746Z" fill="#000F9F"/>
<path d="M284.019 22.5283V25.0037H266.749V0.364746H283.636V2.82096H269.397V10.9188H280.911V13.375H269.397V22.5283H284.019Z" fill="#000F9F"/>
<path d="M12.0316 34.8667V49.6424H10.6692L1.5927 37.7259V49.6424H0V34.8667H1.38162L10.4581 46.8024V34.8667H12.0316Z" fill="#000F9F"/>
<path d="M20.3789 39.2995C21.4242 39.2919 22.4482 39.5949 23.321 40.1701C24.1938 40.7453 24.8762 41.5668 25.2815 42.5303C25.6868 43.4939 25.7968 44.5561 25.5975 45.5823C25.3983 46.6084 24.8987 47.5523 24.1623 48.2941C23.4258 49.036 22.4856 49.5424 21.4609 49.7491C20.4363 49.9559 19.3733 49.8536 18.4068 49.4554C17.4403 49.0571 16.6139 48.3808 16.0323 47.5122C15.4507 46.6436 15.1402 45.6218 15.1402 44.5765C15.13 43.8839 15.2582 43.1963 15.5174 42.5539C15.7765 41.9116 16.1614 41.3275 16.6494 40.8359C17.1374 40.3443 17.7186 39.9552 18.3591 39.6914C18.9995 39.4275 19.6862 39.2943 20.3789 39.2995ZM20.3789 40.6811C19.614 40.6505 18.8575 40.8493 18.2065 41.2519C17.5555 41.6546 17.0398 42.2427 16.7256 42.9408C16.4115 43.6388 16.3132 44.4148 16.4435 45.1691C16.5738 45.9234 16.9267 46.6215 17.4568 47.1737C17.9869 47.7259 18.67 48.1069 19.4184 48.2679C20.1667 48.4288 20.9461 48.3623 21.6564 48.0769C22.3666 47.7915 22.9753 47.3002 23.4042 46.6662C23.8331 46.0322 24.0626 45.2844 24.0632 44.5189C24.064 43.5271 23.6808 42.5735 22.9939 41.858C22.3071 41.1425 21.3699 40.7208 20.3789 40.6811Z" fill="#000F9F"/>
<path d="M33.7922 40.7771H33.159C32.7325 40.7742 32.3099 40.8579 31.9168 41.0232C31.5238 41.1885 31.1684 41.432 30.8722 41.7389C30.5761 42.0458 30.3455 42.4096 30.1943 42.8084C30.0431 43.2071 29.9745 43.6324 29.9928 44.0585V49.6426H28.5728V39.5107H30.0503V40.8923C30.4484 40.3799 30.9617 39.9687 31.5485 39.692C32.1353 39.4152 32.7791 39.2808 33.4276 39.2996H33.8498L33.7922 40.7771Z" fill="#000F9F"/>
<path d="M43.7706 34.8667H45.2482V49.6424H43.7706V48.0689C43.3427 48.6144 42.7986 49.0576 42.1779 49.3663C41.5571 49.675 40.8754 49.8415 40.1822 49.8535C38.8603 49.7406 37.629 49.1358 36.7316 48.1586C35.8343 47.1815 35.3364 45.9031 35.3364 44.5764C35.3364 43.2498 35.8343 41.9714 36.7316 40.9942C37.629 40.0171 38.8603 39.4122 40.1822 39.2994C40.8754 39.3114 41.5571 39.4778 42.1779 39.7865C42.7986 40.0952 43.3427 40.5385 43.7706 41.084V34.8667ZM40.1822 40.6235C39.2517 40.7698 38.4039 41.2436 37.7918 41.9595C37.1796 42.6755 36.8432 43.5865 36.8432 44.5285C36.8432 45.4704 37.1796 46.3815 37.7918 47.0974C38.4039 47.8133 39.2517 48.2871 40.1822 48.4335C41.2179 48.4335 42.2111 48.022 42.9435 47.2897C43.6758 46.5574 44.0872 45.5641 44.0872 44.5285C44.0872 43.4928 43.6758 42.4995 42.9435 41.7672C42.2111 41.0349 41.2179 40.6235 40.1822 40.6235Z" fill="#000F9F"/>
<path d="M54.5358 40.7771H53.9026C53.4761 40.7742 53.0535 40.8579 52.6604 41.0232C52.2674 41.1885 51.912 41.432 51.6159 41.7389C51.3197 42.0458 51.0891 42.4096 50.9379 42.8084C50.7867 43.2071 50.7181 43.6324 50.7364 44.0585V49.6426H49.2588V39.5107H50.7364V40.8923C51.1344 40.3799 51.6477 39.9687 52.2345 39.692C52.8213 39.4152 53.4651 39.2808 54.1137 39.2996H54.5358V40.7771Z" fill="#000F9F"/>
<path d="M58.6231 40.9881C59.1426 40.2722 59.8803 39.7441 60.7255 39.4832C61.5706 39.2223 62.4776 39.2426 63.3103 39.5411C64.1429 39.8395 64.8563 40.4 65.3432 41.1384C65.8302 41.8768 66.0645 42.7533 66.0109 43.6362V49.6424H64.5333V43.6362C64.5655 43.2578 64.5181 42.877 64.3944 42.518C64.2707 42.159 64.0734 41.8298 63.815 41.5516C63.5566 41.2734 63.243 41.0522 62.8941 40.9023C62.5453 40.7524 62.169 40.677 61.7893 40.681C61.3543 40.6772 60.9232 40.7636 60.5233 40.9348C60.1234 41.106 59.7633 41.3582 59.4658 41.6756C59.1683 41.9929 58.9398 42.3685 58.7947 42.7786C58.6497 43.1887 58.5912 43.6245 58.6231 44.0583V49.6424H57.1455V34.8667H58.6231V40.9881Z" fill="#000F9F"/>
<path d="M70.5396 45.1138C70.6155 46.0237 71.0267 46.873 71.6932 47.497C72.3597 48.121 73.2343 48.4753 74.1472 48.4911C74.7841 48.4793 75.4098 48.3208 75.9755 48.0279C76.5413 47.7351 77.0319 47.3157 77.4093 46.8025L78.4647 47.7236C77.9652 48.3704 77.3262 48.8961 76.5952 49.2616C75.8643 49.6271 75.0603 49.8229 74.2431 49.8344C73.5501 49.842 72.8624 49.7129 72.2193 49.4547C71.5762 49.1965 70.9902 48.8142 70.4948 48.3295C69.9995 47.8448 69.6044 47.2673 69.3322 46.63C69.0601 45.9926 68.9161 45.3079 68.9085 44.6149C68.901 43.9219 69.03 43.2342 69.2882 42.5911C69.5464 41.948 69.9287 41.362 70.4134 40.8666C70.8981 40.3713 71.4756 39.9762 72.1129 39.7041C72.7503 39.4319 73.435 39.2879 74.128 39.2803C74.7845 39.277 75.4348 39.4073 76.0392 39.6635C76.6437 39.9196 77.1897 40.2961 77.644 40.7701C78.0982 41.2441 78.4512 41.8056 78.6813 42.4204C78.9115 43.0353 79.0141 43.6905 78.9828 44.3463C79.0138 44.6012 79.0138 44.8589 78.9828 45.1138H70.5396ZM70.5396 43.8474H77.4093C77.3467 42.992 76.9646 42.1914 76.3389 41.6048C75.7132 41.0182 74.8897 40.6885 74.032 40.6811C73.1623 40.7075 72.331 41.0457 71.6899 41.634C71.0487 42.2223 70.6405 43.0215 70.5396 43.8857V43.8474Z" fill="#000F9F"/>
<path d="M82.6862 35.174C82.876 35.174 83.0615 35.2303 83.2193 35.3357C83.3771 35.4412 83.5 35.591 83.5726 35.7663C83.6453 35.9416 83.6643 36.1346 83.6272 36.3207C83.5902 36.5068 83.4988 36.6777 83.3647 36.8119C83.2305 36.9461 83.0595 37.0375 82.8734 37.0745C82.6873 37.1115 82.4944 37.0925 82.3191 37.0199C82.1437 36.9473 81.9939 36.8243 81.8885 36.6665C81.783 36.5088 81.7268 36.3233 81.7268 36.1335C81.7241 36.0068 81.7472 35.8808 81.7945 35.7633C81.8418 35.6457 81.9123 35.5388 82.002 35.4492C82.0916 35.3596 82.1984 35.289 82.316 35.2417C82.4336 35.1944 82.5595 35.1714 82.6862 35.174ZM81.9378 39.5108H83.4154V49.6427H81.9378V39.5108Z" fill="#000F9F"/>
<path d="M88.6926 40.988C89.2164 40.2771 89.9554 39.754 90.7999 39.4962C91.6445 39.2385 92.5496 39.2598 93.3811 39.5571C94.2125 39.8543 94.926 40.4117 95.4157 41.1465C95.9055 41.8812 96.1453 42.7543 96.0996 43.6361V49.6423H94.6221V43.6361C94.654 43.2594 94.6072 42.8802 94.4847 42.5225C94.3621 42.1649 94.1665 41.8366 93.9102 41.5587C93.6539 41.2807 93.3426 41.0592 92.996 40.9081C92.6495 40.757 92.2753 40.6796 91.8972 40.681C91.463 40.68 91.0333 40.7684 90.6347 40.9405C90.2361 41.1127 89.8772 41.3649 89.5803 41.6817C89.2833 41.9984 89.0547 42.3729 88.9086 42.7817C88.7625 43.1906 88.702 43.6251 88.731 44.0583V49.6423H87.2534V39.5104H88.731L88.6926 40.988Z" fill="#000F9F"/>
<path d="M106.961 44.1544H99.9565V42.792H106.961V44.1544Z" fill="#000F9F"/>
<path d="M119.319 37.3037L115.481 49.6424H113.907L108.976 34.8667H110.664L114.502 47.2245L118.57 34.8667H120.048L124.058 47.2245L127.896 34.8667H129.585L124.807 49.6424H123.214L119.319 37.3037Z" fill="#000F9F"/>
<path d="M132.022 45.1138C132.093 46.0221 132.5 46.8712 133.164 47.4955C133.827 48.1199 134.699 48.4749 135.61 48.4911C136.247 48.4793 136.873 48.3208 137.438 48.0279C138.004 47.7351 138.495 47.3157 138.872 46.8025L139.87 47.7236C139.371 48.3704 138.731 48.8961 138.001 49.2616C137.27 49.6271 136.466 49.8229 135.648 49.8344C134.955 49.842 134.268 49.7129 133.625 49.4547C132.981 49.1965 132.395 48.8142 131.9 48.3295C131.405 47.8448 131.01 47.2673 130.738 46.63C130.465 45.9926 130.321 45.3079 130.314 44.6149C130.306 43.9219 130.435 43.2342 130.693 42.5911C130.952 41.948 131.334 41.362 131.819 40.8666C132.303 40.3713 132.881 39.9762 133.518 39.7041C134.156 39.4319 134.84 39.2879 135.533 39.2803C136.19 39.277 136.84 39.4073 137.445 39.6635C138.049 39.9196 138.595 40.2961 139.049 40.7701C139.503 41.2441 139.856 41.8056 140.087 42.4204C140.317 43.0353 140.419 43.6905 140.388 44.3463C140.419 44.6012 140.419 44.8589 140.388 45.1138H132.022ZM132.022 43.8474H138.872C138.81 42.992 138.427 42.1914 137.802 41.6048C137.176 41.0182 136.353 40.6885 135.495 40.6811C134.628 40.712 133.802 41.0522 133.165 41.6401C132.527 42.228 132.122 43.0246 132.022 43.8857V43.8474Z" fill="#000F9F"/>
<path d="M148.313 41.7172C148.048 41.3884 147.712 41.1241 147.33 40.9446C146.947 40.765 146.529 40.6749 146.107 40.681C145.883 40.6487 145.656 40.6616 145.437 40.7189C145.219 40.7761 145.014 40.8766 144.835 41.0144C144.656 41.1521 144.507 41.3244 144.396 41.5209C144.284 41.7174 144.214 41.9343 144.188 42.1586C144.188 44.3654 149.676 43.214 149.676 46.8024C149.676 48.491 148.294 49.8535 145.972 49.8535C145.261 49.8709 144.555 49.718 143.914 49.4076C143.273 49.0972 142.716 48.6382 142.288 48.0689L143.343 47.0135C143.637 47.4466 144.028 47.8055 144.484 48.062C144.94 48.3184 145.45 48.4653 145.972 48.491C147.45 48.491 148.198 47.7427 148.198 46.8024C148.198 44.4805 142.71 45.6318 142.71 42.1586C142.744 41.749 142.858 41.3502 143.046 40.9848C143.235 40.6194 143.493 40.2947 143.806 40.0292C144.12 39.7637 144.483 39.5625 144.874 39.4373C145.266 39.3121 145.678 39.2652 146.088 39.2994C146.697 39.293 147.301 39.4124 147.863 39.6502C148.424 39.8879 148.93 40.2388 149.35 40.681L148.313 41.7172Z" fill="#000F9F"/>
<path d="M153.705 36.21H155.068V39.5873H157.294V40.9689H155.068V46.9751C155.068 48.0305 155.605 48.5678 156.449 48.5678C156.922 48.5566 157.386 48.4454 157.812 48.2416V49.6424C157.358 49.8415 156.868 49.946 156.373 49.9494C155.986 49.9752 155.598 49.9149 155.236 49.773C154.875 49.6311 154.55 49.4109 154.284 49.1285C154.018 48.846 153.818 48.5081 153.698 48.1391C153.578 47.7701 153.541 47.3792 153.59 46.9943V40.8921H151.671V39.5105H152.842C153.36 39.5105 153.686 39.2035 153.686 38.4551L153.705 36.21Z" fill="#000F9F"/>
<path d="M165.2 40.8923H162.782V49.6426H161.304V40.8923H159.711V39.5107H161.304V37.5918C161.252 37.2096 161.286 36.8208 161.402 36.4532C161.519 36.0856 161.715 35.7484 161.978 35.4658C162.24 35.1832 162.562 34.9623 162.92 34.8189C163.278 34.6755 163.663 34.6133 164.048 34.6366C164.557 34.637 165.059 34.7415 165.526 34.9436V36.3253C165.091 36.1307 164.621 36.0263 164.144 36.0182C163.3 36.0182 162.782 36.5363 162.782 37.5918V39.5107H165.2V40.8923Z" fill="#000F9F"/>
<path d="M173.854 43.214C173.867 42.8778 173.811 42.5424 173.689 42.2289C173.566 41.9155 173.38 41.6308 173.142 41.3929C172.904 41.1549 172.619 40.9688 172.306 40.8463C171.992 40.7238 171.657 40.6675 171.321 40.6811C170.766 40.7057 170.223 40.8505 169.729 41.1057C169.235 41.3608 168.803 41.72 168.462 42.1586L167.521 41.1992C167.98 40.616 168.562 40.1415 169.225 39.8097C169.889 39.478 170.618 39.2971 171.359 39.2803C171.878 39.2569 172.395 39.3389 172.881 39.5213C173.367 39.7037 173.81 39.9827 174.185 40.3414C174.56 40.7001 174.858 41.1311 175.062 41.6084C175.266 42.0857 175.37 42.5992 175.37 43.1181V49.6424H173.892V48.28C173.509 48.7786 173.014 49.1807 172.448 49.4539C171.881 49.7271 171.259 49.864 170.63 49.8535C169.762 49.929 168.899 49.6622 168.225 49.1101C167.551 48.558 167.119 47.7642 167.022 46.8984C167.022 45.2097 168.097 44.1543 169.997 43.8473L173.854 43.214ZM173.854 45.133V44.4997L170.381 45.133C169.095 45.3632 168.462 45.9773 168.462 46.9176C168.462 47.8578 169.21 48.5103 170.592 48.5103C171.035 48.5219 171.475 48.441 171.885 48.2726C172.295 48.1043 172.666 47.8522 172.973 47.5325C173.28 47.2128 173.517 46.8326 173.669 46.4161C173.82 45.9996 173.883 45.556 173.854 45.1138V45.133Z" fill="#000F9F"/>
<path d="M180.397 49.6424H178.92V34.8667H180.397V49.6424Z" fill="#000F9F"/>
<path d="M185.041 45.1137C185.113 46.0219 185.52 46.871 186.183 47.4954C186.847 48.1198 187.719 48.4747 188.63 48.491C189.267 48.4792 189.892 48.3206 190.458 48.0278C191.024 47.7349 191.515 47.3156 191.892 46.8024L192.851 47.7426C192.352 48.3894 191.713 48.9152 190.982 49.2807C190.251 49.6461 189.447 49.8419 188.63 49.8534C187.23 49.8687 185.882 49.3274 184.882 48.3485C183.881 47.3697 183.311 46.0335 183.295 44.634C183.28 43.2344 183.821 41.8861 184.8 40.8857C185.779 39.8853 187.115 39.3146 188.515 39.2994C189.171 39.296 189.821 39.4264 190.426 39.6825C191.03 39.9386 191.576 40.3152 192.031 40.7892C192.485 41.2631 192.838 41.8247 193.068 42.4395C193.298 43.0543 193.401 43.7096 193.37 44.3653C193.401 44.6202 193.401 44.878 193.37 45.1329L185.041 45.1137ZM185.041 43.8472H191.892C191.829 42.9918 191.447 42.1913 190.822 41.6047C190.196 41.0181 189.372 40.6883 188.515 40.681C187.648 40.7119 186.822 41.0521 186.184 41.6399C185.547 42.2278 185.142 43.0245 185.041 43.8856V43.8472Z" fill="#000F9F"/>
<path d="M197.802 40.988C198.326 40.2771 199.065 39.754 199.91 39.4962C200.754 39.2385 201.659 39.2598 202.491 39.5571C203.322 39.8543 204.036 40.4117 204.525 41.1465C205.015 41.8812 205.255 42.7543 205.209 43.6361V49.6423H203.713V43.6361C203.748 43.2572 203.703 42.875 203.58 42.5147C203.457 42.1544 203.26 41.824 203.001 41.5451C202.742 41.2662 202.427 41.0451 202.077 40.8962C201.727 40.7473 201.349 40.674 200.968 40.681C200.534 40.68 200.105 40.7684 199.706 40.9405C199.307 41.1127 198.949 41.3649 198.652 41.6817C198.355 41.9984 198.126 42.3729 197.98 42.7817C197.834 43.1906 197.773 43.6251 197.802 44.0583V49.6423H196.325V39.5104H197.802V40.988Z" fill="#000F9F"/>
<path d="M76.0659 0.518066L87.0038 17.0783L81.5348 24.9843H89.3065L94.7754 17.0783L83.8375 0.518066H76.0659Z" fill="#000F9F"/>
</g>
<defs>
<clipPath id="clip0_2437_9477">
<rect width="284" height="49.8535" fill="white"/>
</clipPath>
</defs>
</svg>
