<svg width="314" height="55" viewBox="0 0 314 55" fill="none" xmlns="http://www.w3.org/2000/svg">
<g clip-path="url(#clip0_2430_2445)">
<path d="M0.0424805 27.5848V0.402344H12.2842C18.1187 0.402344 21.6194 3.89542 21.6194 7.57902C21.6119 8.74824 21.2811 9.89272 20.6634 10.8863C20.0457 11.88 19.1652 12.6841 18.1187 13.2103C19.4783 13.6557 20.6714 14.5002 21.5421 15.6334C22.4127 16.7666 22.9203 18.1356 22.9984 19.5613C22.9984 23.626 19.0946 27.5213 13.0692 27.5213L0.0424805 27.5848ZM7.42572 6.22413V10.8816H11.5205C12.1394 10.8816 12.733 10.6362 13.1707 10.1995C13.6084 9.76278 13.8542 9.17046 13.8542 8.55284C13.8542 7.93523 13.6084 7.34291 13.1707 6.90619C12.733 6.46948 12.1394 6.22413 11.5205 6.22413H7.42572ZM12.4964 21.763C12.8746 21.7963 13.2557 21.7508 13.6153 21.6292C13.9749 21.5076 14.3053 21.3127 14.5853 21.0569C14.8654 20.801 15.089 20.4898 15.242 20.143C15.395 19.7963 15.474 19.4215 15.474 19.0426C15.474 18.6638 15.395 18.289 15.242 17.9423C15.089 17.5955 14.8654 17.2843 14.5853 17.0284C14.3053 16.7726 13.9749 16.5777 13.6153 16.4561C13.2557 16.3345 12.8746 16.289 12.4964 16.3223H7.42572V21.763H12.4964Z" fill="white"/>
<path d="M33.9671 21.763L32.0364 27.5848H24.0591L34.3702 0.402344H42.5384L52.8071 27.5848H44.8722L42.9203 21.763H33.9671ZM38.4437 7.96008L35.8341 15.9412H40.8835L38.4437 7.96008Z" fill="white"/>
<path d="M71.732 16.3223V0.402344H79.1152V16.3223C79.1281 17.9392 78.8116 19.5419 78.1851 21.0331C77.5586 22.5243 76.6351 23.8731 75.4705 24.9975C74.306 26.1219 72.9247 26.9985 71.4104 27.5743C69.8961 28.1501 68.2804 28.4129 66.6613 28.3469C65.0431 28.413 63.4284 28.1501 61.9153 27.5741C60.4021 26.9981 59.0222 26.1211 57.8593 24.9964C56.6964 23.8717 55.7749 22.5227 55.1508 21.0316C54.5266 19.5404 54.2129 17.9382 54.2286 16.3223V0.402344H61.6118V16.3223C61.567 17.0128 61.6646 17.7052 61.8986 18.3566C62.1326 19.0081 62.498 19.6046 62.9723 20.1095C63.4466 20.6144 64.0196 21.0169 64.6559 21.292C65.2923 21.5671 65.9784 21.7091 66.6719 21.7091C67.3654 21.7091 68.0515 21.5671 68.6879 21.292C69.3242 21.0169 69.8972 20.6144 70.3715 20.1095C70.8458 19.6046 71.2112 19.0081 71.4452 18.3566C71.6792 17.7052 71.7768 17.0128 71.732 16.3223Z" fill="white"/>
<path d="M114.674 0.402344H117.601V27.5848H114.674V0.402344Z" fill="white"/>
<path d="M147.283 0.402344V27.5848H144.758L128.019 5.63137V27.5848H125.112V0.402344H127.637L144.376 22.3346V0.402344H147.283Z" fill="white"/>
<path d="M163.322 0.402155C165.15 0.362816 166.968 0.683202 168.672 1.34501C170.375 2.00682 171.932 2.99708 173.252 4.25922C174.572 5.52136 175.63 7.03066 176.365 8.70088C177.1 10.3711 177.499 12.1695 177.537 13.9934C177.454 17.675 175.91 21.1734 173.246 23.7212C170.581 26.2691 167.012 27.6584 163.322 27.5846H154.836V0.402155H163.322ZM157.679 3.11193V24.8537H163.322C164.794 24.9185 166.263 24.6853 167.641 24.1682C169.019 23.6511 170.279 22.8608 171.342 21.845C172.406 20.8291 173.253 19.6088 173.832 18.2576C174.41 16.9063 174.708 15.4522 174.708 13.9828C174.708 12.5134 174.41 11.0593 173.832 9.70804C173.253 8.3568 172.406 7.13647 171.342 6.12063C170.279 5.10479 169.019 4.3145 167.641 3.79741C166.263 3.28032 164.794 3.04714 163.322 3.11193H157.679Z" fill="white"/>
<path d="M201.83 16.8939V0.402344H204.736V16.8939C204.802 18.3872 204.564 19.8783 204.036 21.2773C203.509 22.6762 202.703 23.9541 201.667 25.0339C200.631 26.1137 199.387 26.9731 198.009 27.5601C196.631 28.1472 195.149 28.4499 193.651 28.4499C192.153 28.4499 190.671 28.1472 189.293 27.5601C187.915 26.9731 186.671 26.1137 185.635 25.0339C184.599 23.9541 183.793 22.6762 183.266 21.2773C182.738 19.8783 182.5 18.3872 182.566 16.8939V0.402344H185.472V16.8939C185.416 18.0006 185.585 19.1072 185.971 20.1464C186.356 21.1856 186.95 22.1357 187.715 22.939C188.48 23.7422 189.4 24.3818 190.421 24.8189C191.442 25.256 192.54 25.4813 193.651 25.4813C194.762 25.4813 195.86 25.256 196.881 24.8189C197.902 24.3818 198.822 23.7422 199.587 22.939C200.352 22.1357 200.946 21.1856 201.331 20.1464C201.717 19.1072 201.886 18.0006 201.83 16.8939Z" fill="white"/>
<path d="M210.783 7.38845C210.783 3.42964 214.135 7.88352e-05 219.545 7.88352e-05C221.049 -0.011639 222.537 0.295615 223.913 0.901476C225.288 1.50734 226.518 2.39796 227.523 3.51432L225.571 5.4408C224.834 4.56772 223.91 3.87095 222.867 3.40193C221.824 2.93292 220.689 2.70364 219.545 2.73103C215.811 2.73103 213.711 4.84804 213.711 7.38845C213.711 14.3746 228.562 10.5005 228.562 20.1964C228.562 24.6633 225.253 27.9658 219.418 27.9658C217.683 28.0236 215.957 27.6856 214.373 26.9775C212.788 26.2695 211.386 25.2101 210.274 23.88L212.056 21.9112C212.938 23.001 214.063 23.8707 215.341 24.4513C216.619 25.0319 218.015 25.3075 219.418 25.256C223.492 25.256 225.634 23.139 225.634 20.1964C225.571 13.2102 210.783 17.1055 210.783 7.38845Z" fill="white"/>
<path d="M251.306 0.402344V3.11212H242.82V27.5848H239.913V3.11212H231.427V0.402344H251.306Z" fill="white"/>
<path d="M267.855 0.402256C268.949 0.355802 270.041 0.533385 271.063 0.924063C272.086 1.31474 273.017 1.91024 273.8 2.67385C274.584 3.43746 275.202 4.35302 275.617 5.3641C276.032 6.37518 276.235 7.46035 276.214 8.55276C276.234 10.2809 275.696 11.9696 274.68 13.369C273.664 14.7683 272.223 15.8038 270.57 16.3222L276.935 27.5847H273.625L267.664 16.6609H259.877V27.5424H256.949V0.402256H267.855ZM259.877 3.11203V13.9935H267.855C268.583 14.044 269.313 13.9377 269.997 13.6819C270.68 13.426 271.3 13.0265 271.815 12.5106C272.33 11.9946 272.728 11.3741 272.982 10.6913C273.236 10.0084 273.339 9.27909 273.286 8.55276C273.339 7.82642 273.236 7.09711 272.982 6.41424C272.728 5.73138 272.33 5.11093 271.815 4.59495C271.3 4.07897 270.68 3.67951 269.997 3.42365C269.313 3.1678 268.583 3.06152 267.855 3.11203H259.877Z" fill="white"/>
<path d="M283.618 0.402344H286.546V27.5848H283.618V0.402344Z" fill="white"/>
<path d="M314.021 24.8538V27.5848H294.927V0.402344H313.597V3.11212H297.855V12.0459H310.584V14.7557H297.855V24.8538H314.021Z" fill="white"/>
<path d="M13.3026 38.4661V54.7671H11.7962L1.76095 41.6204V54.7671H0V38.4661H1.52757L11.5628 51.6339V38.4661H13.3026Z" fill="white"/>
<path d="M22.5314 43.3564C23.6871 43.348 24.8193 43.6823 25.7844 44.3169C26.7494 44.9514 27.5038 45.8577 27.9519 46.9208C28.4 47.9838 28.5216 49.1557 28.3013 50.2877C28.081 51.4198 27.5287 52.4611 26.7145 53.2796C25.9002 54.098 24.8607 54.6567 23.7278 54.8848C22.5949 55.1129 21.4196 55.0001 20.351 54.5607C19.2824 54.1213 18.3687 53.3752 17.7257 52.4169C17.0827 51.4586 16.7394 50.3314 16.7394 49.1781C16.7281 48.4141 16.8698 47.6554 17.1564 46.9468C17.4429 46.2381 17.8684 45.5937 18.408 45.0514C18.9475 44.5091 19.5902 44.0798 20.2983 43.7887C21.0064 43.4976 21.7656 43.3506 22.5314 43.3564ZM22.5314 44.8806C21.6858 44.8468 20.8493 45.0661 20.1296 45.5104C19.4098 45.9546 18.8396 46.6035 18.4923 47.3736C18.1449 48.1436 18.0363 48.9998 18.1804 49.8319C18.3244 50.6641 18.7146 51.4342 19.3007 52.0434C19.8868 52.6526 20.6421 53.073 21.4695 53.2506C22.2969 53.4282 23.1586 53.3548 23.9439 53.0399C24.7291 52.7251 25.4021 52.1831 25.8763 51.4836C26.3505 50.7841 26.6043 49.9591 26.6049 49.1146C26.6058 48.0204 26.1821 46.9684 25.4227 46.1791C24.6633 45.3897 23.6271 44.9244 22.5314 44.8806Z" fill="white"/>
<path d="M37.3616 44.9865H36.6615C36.19 44.9832 35.7228 45.0756 35.2882 45.2579C34.8535 45.4403 34.4606 45.709 34.1332 46.0475C33.8058 46.3861 33.5508 46.7875 33.3837 47.2274C33.2165 47.6673 33.1407 48.1366 33.1608 48.6066V54.7671H31.5908V43.5893H33.2245V45.1135C33.6646 44.5483 34.2321 44.0946 34.8809 43.7893C35.5297 43.484 36.2415 43.3357 36.9585 43.3564H37.4253L37.3616 44.9865Z" fill="white"/>
<path d="M48.3944 38.4661H50.0281V54.7671H48.3944V53.0311C47.9214 53.6329 47.3198 54.1219 46.6335 54.4625C45.9472 54.8031 45.1934 54.9867 44.427 54.9999C42.9655 54.8755 41.604 54.2082 40.6119 53.1301C39.6198 52.0521 39.0693 50.6418 39.0693 49.1782C39.0693 47.7145 39.6198 46.3042 40.6119 45.2262C41.604 44.1481 42.9655 43.4808 44.427 43.3564C45.1934 43.3696 45.9472 43.5532 46.6335 43.8938C47.3198 44.2344 47.9214 44.7234 48.3944 45.3252V38.4661ZM44.427 44.8171C43.3981 44.9785 42.4609 45.5012 41.784 46.2911C41.1072 47.0809 40.7353 48.086 40.7353 49.1252C40.7353 50.1644 41.1072 51.1695 41.784 51.9594C42.4609 52.7492 43.3981 53.2719 44.427 53.4333C45.5721 53.4333 46.6702 52.9795 47.4799 52.1715C48.2896 51.3636 48.7445 50.2678 48.7445 49.1252C48.7445 47.9826 48.2896 46.8869 47.4799 46.0789C46.6702 45.271 45.5721 44.8171 44.427 44.8171Z" fill="white"/>
<path d="M60.2964 44.9865H59.5962C59.1248 44.9832 58.6575 45.0756 58.2229 45.2579C57.7883 45.4403 57.3954 45.709 57.068 46.0475C56.7406 46.3861 56.4856 46.7875 56.3184 47.2274C56.1512 47.6673 56.0754 48.1366 56.0956 48.6066V54.7671H54.4619V43.5893H56.0956V45.1135C56.5357 44.5483 57.1032 44.0946 57.752 43.7893C58.4008 43.484 59.1126 43.3357 59.8296 43.3564H60.2964V44.9865Z" fill="white"/>
<path d="M64.8158 45.2193C65.3902 44.4296 66.2058 43.847 67.1402 43.5592C68.0747 43.2713 69.0775 43.2937 69.9981 43.623C70.9187 43.9522 71.7074 44.5706 72.2458 45.3852C72.7842 46.1999 73.0432 47.1668 72.984 48.1408V54.7671H71.3504V48.1408C71.3859 47.7234 71.3336 47.3032 71.1968 46.9072C71.06 46.5112 70.8418 46.148 70.5562 45.8411C70.2705 45.5341 69.9237 45.2901 69.538 45.1247C69.1523 44.9593 68.7362 44.8762 68.3165 44.8806C67.8355 44.8764 67.3589 44.9717 66.9167 45.1606C66.4746 45.3494 66.0765 45.6277 65.7475 45.9778C65.4186 46.3279 65.1659 46.7423 65.0056 47.1948C64.8452 47.6472 64.7806 48.1279 64.8158 48.6066V54.7671H63.1821V38.4661H64.8158V45.2193Z" fill="white"/>
<path d="M77.9907 49.771C78.0747 50.7748 78.5292 51.7118 79.2662 52.4002C80.0032 53.0886 80.97 53.4794 81.9794 53.4969C82.6836 53.4839 83.3754 53.309 84.0009 52.9859C84.6264 52.6628 85.1689 52.2002 85.5861 51.634L86.753 52.6501C86.2008 53.3637 85.4942 53.9437 84.686 54.3469C83.8779 54.7501 82.9889 54.9661 82.0855 54.9788C81.3193 54.9872 80.5589 54.8449 79.8479 54.56C79.1368 54.2751 78.4889 53.8533 77.9412 53.3186C77.3935 52.7839 76.9568 52.1468 76.6558 51.4436C76.3549 50.7405 76.1957 49.9851 76.1874 49.2206C76.179 48.456 76.3216 47.6974 76.6071 46.9878C76.8926 46.2783 77.3154 45.6318 77.8512 45.0853C78.3871 44.5388 79.0256 44.103 79.7303 43.8027C80.4349 43.5025 81.192 43.3436 81.9582 43.3353C82.684 43.3316 83.403 43.4754 84.0713 43.758C84.7397 44.0405 85.3433 44.4559 85.8456 44.9789C86.3478 45.5018 86.738 46.1212 86.9925 46.7995C87.247 47.4778 87.3604 48.2007 87.3259 48.9242C87.3601 49.2054 87.3601 49.4898 87.3259 49.771H77.9907ZM77.9907 48.3738H85.5861C85.5169 47.4301 85.0944 46.5469 84.4026 45.8997C83.7108 45.2526 82.8003 44.8888 81.8521 44.8807C80.8905 44.9098 79.9714 45.2829 79.2625 45.9319C78.5537 46.5809 78.1023 47.4626 77.9907 48.4161V48.3738Z" fill="white"/>
<path d="M91.4207 38.8049C91.6305 38.8049 91.8356 38.867 92.01 38.9833C92.1845 39.0996 92.3204 39.2649 92.4007 39.4583C92.481 39.6518 92.502 39.8646 92.4611 40.0699C92.4201 40.2753 92.3191 40.4639 92.1708 40.6119C92.0224 40.7599 91.8334 40.8607 91.6276 40.9016C91.4218 40.9424 91.2085 40.9215 91.0147 40.8413C90.8209 40.7612 90.6552 40.6256 90.5386 40.4515C90.4221 40.2774 90.3598 40.0728 90.3598 39.8634C90.357 39.7236 90.3824 39.5847 90.4347 39.455C90.487 39.3252 90.565 39.2074 90.6641 39.1085C90.7632 39.0096 90.8813 38.9318 91.0113 38.8796C91.1413 38.8274 91.2806 38.802 91.4207 38.8049ZM90.5932 43.5894H92.2269V54.7672H90.5932V43.5894Z" fill="white"/>
<path d="M98.0612 45.2193C98.6403 44.435 99.4573 43.8579 100.391 43.5735C101.325 43.2892 102.326 43.3127 103.245 43.6407C104.164 43.9686 104.953 44.5835 105.495 45.3941C106.036 46.2047 106.301 47.1679 106.251 48.1408V54.767H104.617V48.1408C104.652 47.7252 104.601 47.3068 104.465 46.9122C104.33 46.5177 104.113 46.1555 103.83 45.8489C103.547 45.5423 103.202 45.2978 102.819 45.1311C102.436 44.9644 102.022 44.8791 101.604 44.8806C101.124 44.8795 100.649 44.977 100.208 45.1669C99.7678 45.3568 99.3709 45.6352 99.0426 45.9846C98.7143 46.334 98.4615 46.7471 98.3 47.1982C98.1385 47.6492 98.0716 48.1286 98.1036 48.6065V54.767H96.47V43.5892H98.1036L98.0612 45.2193Z" fill="white"/>
<path d="M118.259 48.7126H110.515V47.2095H118.259V48.7126Z" fill="white"/>
<path d="M131.922 41.1547L127.679 54.7671H125.939L120.487 38.4661H122.354L126.597 52.0996L131.095 38.4661H132.729L137.163 52.0996L141.406 38.4661H143.273L137.99 54.7671H136.229L131.922 41.1547Z" fill="white"/>
<path d="M145.968 49.771C146.047 50.773 146.497 51.7097 147.23 52.3986C147.964 53.0874 148.928 53.479 149.935 53.4969C150.639 53.4839 151.331 53.309 151.957 52.9859C152.582 52.6628 153.125 52.2002 153.542 51.634L154.645 52.6501C154.093 53.3637 153.386 53.9437 152.578 54.3469C151.77 54.7501 150.881 54.9661 149.978 54.9788C149.211 54.9872 148.451 54.8449 147.74 54.56C147.029 54.2751 146.381 53.8533 145.833 53.3186C145.286 52.7839 144.849 52.1468 144.548 51.4436C144.247 50.7405 144.088 49.9851 144.079 49.2206C144.071 48.456 144.214 47.6974 144.499 46.9878C144.785 46.2783 145.207 45.6318 145.743 45.0853C146.279 44.5388 146.918 44.103 147.622 43.8027C148.327 43.5025 149.084 43.3436 149.85 43.3353C150.576 43.3316 151.295 43.4754 151.963 43.758C152.632 44.0405 153.235 44.4559 153.738 44.9789C154.24 45.5018 154.63 46.1212 154.885 46.7995C155.139 47.4778 155.253 48.2007 155.218 48.9242C155.252 49.2054 155.252 49.4898 155.218 49.771H145.968ZM145.968 48.3738H153.542C153.473 47.4301 153.05 46.5469 152.358 45.8997C151.667 45.2526 150.756 44.8888 149.808 44.8807C148.85 44.9147 147.936 45.2901 147.231 45.9386C146.527 46.5872 146.079 47.4661 145.968 48.4161V48.3738Z" fill="white"/>
<path d="M163.98 46.0239C163.687 45.661 163.315 45.3695 162.892 45.1714C162.47 44.9734 162.007 44.8739 161.54 44.8807C161.293 44.8451 161.042 44.8593 160.8 44.9224C160.559 44.9856 160.332 45.0964 160.134 45.2484C159.937 45.4004 159.771 45.5904 159.648 45.8073C159.525 46.0241 159.447 46.2633 159.419 46.5108C159.419 48.9453 165.487 47.6751 165.487 51.634C165.487 53.4969 163.959 55 161.392 55C160.605 55.0192 159.825 54.8506 159.116 54.5081C158.407 54.1657 157.791 53.6593 157.318 53.0312L158.485 51.8668C158.81 52.3447 159.242 52.7407 159.746 53.0236C160.251 53.3065 160.814 53.4685 161.392 53.4969C163.026 53.4969 163.853 52.6713 163.853 51.634C163.853 49.0724 157.785 50.3426 157.785 46.5108C157.823 46.059 157.949 45.6189 158.157 45.2158C158.365 44.8127 158.65 44.4545 158.997 44.1615C159.344 43.8686 159.745 43.6467 160.178 43.5086C160.611 43.3704 161.066 43.3187 161.519 43.3564C162.193 43.3494 162.861 43.4811 163.482 43.7434C164.102 44.0057 164.662 44.3928 165.126 44.8807L163.98 46.0239Z" fill="white"/>
<path d="M169.942 39.948H171.448V43.6739H173.909V45.1982H171.448V51.8244C171.448 52.9888 172.042 53.5816 172.976 53.5816C173.498 53.5692 174.011 53.4466 174.482 53.2217V54.7671C173.98 54.9867 173.439 55.102 172.891 55.1058C172.463 55.1342 172.034 55.0678 171.635 54.9112C171.235 54.7546 170.876 54.5118 170.582 54.2001C170.288 53.8885 170.066 53.5157 169.934 53.1086C169.801 52.7016 169.76 52.2702 169.814 51.8456V45.1135H167.693V43.5893H168.987C169.56 43.5893 169.921 43.2505 169.921 42.4249L169.942 39.948Z" fill="white"/>
<path d="M182.65 45.1135H179.977V54.7671H178.343V45.1135H176.583V43.5893H178.343V41.4723C178.286 41.0507 178.323 40.6217 178.452 40.2161C178.581 39.8106 178.798 39.4386 179.088 39.1268C179.378 38.8151 179.734 38.5713 180.13 38.4132C180.526 38.255 180.952 38.1863 181.377 38.2121C181.939 38.2125 182.495 38.3278 183.011 38.5508V40.075C182.53 39.8604 182.01 39.7452 181.483 39.7363C180.55 39.7363 179.977 40.3079 179.977 41.4723V43.5893H182.65V45.1135Z" fill="white"/>
<path d="M192.219 47.6752C192.234 47.3043 192.172 46.9342 192.036 46.5884C191.901 46.2426 191.695 45.9286 191.432 45.6661C191.169 45.4035 190.854 45.1982 190.508 45.0631C190.161 44.9279 189.79 44.8658 189.418 44.8808C188.805 44.9079 188.204 45.0677 187.658 45.3492C187.113 45.6306 186.634 46.027 186.257 46.5109L185.218 45.4524C185.725 44.809 186.368 44.2855 187.102 43.9195C187.835 43.5535 188.641 43.354 189.461 43.3353C190.034 43.3096 190.606 43.4 191.143 43.6013C191.68 43.8025 192.171 44.1103 192.586 44.506C193 44.9018 193.33 45.3773 193.555 45.9038C193.78 46.4304 193.896 46.9969 193.895 47.5694V54.7672H192.261V53.2641C191.838 53.8143 191.291 54.2578 190.665 54.5592C190.038 54.8607 189.35 55.0116 188.655 55.0001C187.695 55.0834 186.741 54.7891 185.995 54.1799C185.25 53.5708 184.773 52.6952 184.666 51.7399C184.666 49.8769 185.854 48.7126 187.955 48.3738L192.219 47.6752ZM192.219 49.7922V49.0936L188.379 49.7922C186.957 50.0463 186.257 50.7237 186.257 51.7611C186.257 52.7984 187.085 53.5182 188.612 53.5182C189.102 53.531 189.589 53.4418 190.043 53.256C190.496 53.0703 190.906 52.7922 191.245 52.4395C191.584 52.0868 191.846 51.6673 192.014 51.2078C192.182 50.7483 192.252 50.259 192.219 49.7711V49.7922Z" fill="white"/>
<path d="M199.454 54.7671H197.82V38.4661H199.454V54.7671Z" fill="white"/>
<path d="M204.588 49.7711C204.667 50.773 205.117 51.7098 205.851 52.3986C206.584 53.0875 207.548 53.479 208.555 53.497C209.26 53.4839 209.951 53.3091 210.577 52.986C211.202 52.6629 211.745 52.2003 212.162 51.634L213.223 52.6714C212.671 53.385 211.964 53.965 211.156 54.3682C210.348 54.7714 209.459 54.9874 208.555 55.0001C207.008 55.0169 205.517 54.4197 204.411 53.3398C203.305 52.2599 202.674 50.7858 202.657 49.2418C202.64 47.6978 203.239 46.2103 204.321 45.1066C205.403 44.0029 206.881 43.3734 208.428 43.3565C209.154 43.3528 209.873 43.4966 210.541 43.7792C211.21 44.0618 211.813 44.4772 212.316 45.0001C212.818 45.523 213.208 46.1425 213.463 46.8208C213.717 47.4991 213.83 48.222 213.796 48.9454C213.83 49.2267 213.83 49.511 213.796 49.7922L204.588 49.7711ZM204.588 48.3738H212.162C212.093 47.4301 211.67 46.547 210.979 45.8998C210.287 45.2526 209.376 44.8889 208.428 44.8808C207.47 44.9148 206.556 45.2901 205.852 45.9387C205.147 46.5873 204.699 47.4662 204.588 48.4162V48.3738Z" fill="white"/>
<path d="M218.697 45.2193C219.276 44.435 220.093 43.8579 221.027 43.5735C221.96 43.2892 222.961 43.3127 223.88 43.6407C224.8 43.9686 225.589 44.5835 226.13 45.3941C226.671 46.2047 226.937 47.1679 226.886 48.1408V54.767H225.231V48.1408C225.27 47.7227 225.22 47.3011 225.085 46.9036C224.949 46.5061 224.731 46.1416 224.445 45.8339C224.158 45.5262 223.81 45.2823 223.423 45.118C223.036 44.9537 222.618 44.8728 222.197 44.8806C221.717 44.8795 221.242 44.977 220.801 45.1669C220.361 45.3568 219.964 45.6352 219.636 45.9846C219.307 46.334 219.055 46.7471 218.893 47.1982C218.731 47.6492 218.665 48.1286 218.697 48.6065V54.767H217.063V43.5892H218.697V45.2193Z" fill="white"/>
<path d="M84.1011 0.571533L96.1943 18.8414L90.1477 27.5635H98.7403L104.787 18.8414L92.6936 0.571533H84.1011Z" fill="white"/>
</g>
<defs>
<clipPath id="clip0_2430_2445">
<rect width="314" height="55" fill="white"/>
</clipPath>
</defs>
</svg>
