<svg width="24" height="24" viewBox="0 0 21 21" fill="none" xmlns="http://www.w3.org/2000/svg">
<path d="M4.63 5.787V20.833H0V5.787H4.63ZM15.74 6.019C18.634 6.019 20.833 7.986 20.833 12.269V20.833H16.203V12.847C16.203 10.995 15.509 9.607 13.889 9.607C12.616 9.607 12.037 10.648 11.689 11.458C11.574 11.806 11.574 12.153 11.574 12.616V20.833H6.944V10.88C6.944 9.144 6.829 7.639 6.829 6.366H10.995L11.227 8.333H11.343C11.921 7.407 13.309 6.019 15.74 6.019ZM2.316 0C3.704 0 4.63 1.042 4.63 2.315C4.63 3.588 3.82 4.63 2.315 4.63C0.925 4.63 0 3.588 0 2.43C0 1.158 0.927 0 2.316 0Z" fill="white"/>
</svg>
